<?xml version="1.0" encoding="utf-8"?>
<!-- Generator: Adobe Illustrator 22.1.0, SVG Export Plug-In . SVG Version: 6.00 Build 0)  -->
<svg version="1.1" id="レイヤー_1" xmlns="http://www.w3.org/2000/svg" xmlns:xlink="http://www.w3.org/1999/xlink" x="0px"
	 y="0px" viewBox="0 0 100 100" enable-background="new 0 0 100 100" xml:space="preserve">
<g>
	<path fill="#FFFFFF" d="M11.15,24.989l5.324,19.349c0.75,2.775,1.125,4.5,1.726,7.575c0.075,0.825,0.3,2.174,0.524,4.125
		l0.15,1.125l0.075,0.75l0.149-1.5c0.676-6.375,0.9-7.875,2.025-12.075L26.6,24.989h10.35L23.075,75.012h-8.1L0.501,24.989H11.15z"
		/>
	<path fill="#FFFFFF" d="M61.999,34.438c-1.65-0.375-2.475-0.525-3.825-0.525c-7.425,0-12.449,6.375-12.449,15.749
		c0,9.225,5.325,16.35,12.374,16.35c1.275,0,2.176-0.15,3.9-0.75v9.449c-1.95,0.675-2.775,0.824-4.725,0.824
		c-12.524,0-21.975-11.1-21.975-25.798c0-14.1,9.524-25.274,21.524-25.274c1.95,0,3.075,0.225,5.175,0.9L61.999,34.438
		L61.999,34.438z"/>
	<path fill="#FFFFFF" d="M75.124,24.989c7.125,0,11.025,1.35,14.774,5.025c4.5,4.275,6.825,11.324,6.825,20.249
		c0,16.125-7.125,24.749-20.25,24.749H66.8V24.989H75.124z M76.699,65.862c2.85,0,4.425-0.6,6.074-2.4
		c2.476-2.55,3.976-7.649,3.976-13.274s-1.5-10.799-3.9-13.574c-1.725-2.025-3.225-2.7-6.149-2.85L76.699,65.862L76.699,65.862z"/>
</g>
</svg>
